<svg xmlns="http://www.w3.org/2000/svg" width="305.186" height="100" viewBox="0 0 305.186 100">
  <g id="genes-diffusion-logo-nega" transform="translate(-24.19 -185.129)">
    <g id="Groupe_1" data-name="Groupe 1" transform="translate(118.16 210.126)">
      <path id="Tracé_1" data-name="Tracé 1" d="M203.987,242.181v1.013c0,6.994-3.8,12.365-9.284,12.365s-9.908-6.149-9.908-13.209c0-7.331,4.525-13.344,10.168-13.344a9.59,9.59,0,0,1,7.984,4.932l-1.716,2.128c-1.4-2.5-3.771-4.155-6.163-4.155-4.4,0-7.828,4.628-7.828,10.337,0,5.337,3.381,10.4,7.62,10.4,3.043,0,6.32-3.412,6.424-7.567h-5.071v-2.906Z" transform="translate(-184.795 -228.331)" fill="#fff"/>
      <path id="Tracé_2" data-name="Tracé 2" d="M221.067,229.931H231.6v2.905h-8.088v7.128h7.854v2.9h-7.854V252.5H231.6V255.4H221.067Z" transform="translate(-199.844 -228.715)" fill="#fff"/>
      <path id="Tracé_3" data-name="Tracé 3" d="M243.159,227.852l14.719,20.032V229.068h2.445v26.518L245.6,235.554V254.54h-2.445Z" transform="translate(-209.01 -227.852)" fill="#fff"/>
      <path id="Tracé_4" data-name="Tracé 4" d="M277.787,229.931h10.532v2.905h-8.088v7.128h7.854v2.9h-7.854V252.5h8.088V255.4H277.787Z" transform="translate(-223.377 -228.715)" fill="#fff"/>
      <path id="Tracé_5" data-name="Tracé 5" d="M308.252,234.378c-.728-1.588-1.664-2.4-3.146-2.4a3.47,3.47,0,0,0-3.278,3.615c0,1.993,1.509,3.04,2.731,3.648l1.4.709c2.782,1.419,4.862,3.412,4.862,7.668,0,4.628-2.756,7.939-6.267,7.939-3.173,0-5.643-3.041-6.06-7.128l2.471-.676c-.026,2.8,1.69,4.832,3.8,4.832s3.615-2.3,3.615-4.967c0-2.737-1.69-3.918-3.381-4.831l-1.353-.743c-2.237-1.25-4.265-2.906-4.265-6.452,0-4.122,2.809-6.588,5.773-6.588,2.184,0,3.979,1.385,5.045,3.851Z" transform="translate(-231.971 -228.331)" fill="#fff"/>
      <path id="Tracé_6" data-name="Tracé 6" d="M335.3,229.931h4.056c6.008,0,11,4.121,11,12.6,0,8.682-4.888,12.871-11.078,12.871H335.3ZM337.75,252.5h.857c4.994,0,9.31-2.432,9.31-9.83,0-7.432-4.316-9.83-9.31-9.83h-.857Z" transform="translate(-247.242 -228.715)" fill="#fff"/>
      <path id="Tracé_7" data-name="Tracé 7" d="M366.865,255.4H364.42V229.931h2.445Z" transform="translate(-259.321 -228.715)" fill="#fff"/>
      <path id="Tracé_8" data-name="Tracé 8" d="M376.6,232.836V240h6.814v2.9H376.6v12.5h-2.445V229.931h9.492v2.905Z" transform="translate(-263.36 -228.715)" fill="#fff"/>
      <path id="Tracé_9" data-name="Tracé 9" d="M397,232.836V240h6.813v2.9H397v12.5h-2.444V229.931h9.491v2.905Z" transform="translate(-271.826 -228.715)" fill="#fff"/>
      <path id="Tracé_10" data-name="Tracé 10" d="M416.871,229.931v15.032c0,4.155.962,8.007,4.733,8.007s4.733-3.852,4.733-8.007V229.931h2.445v16.114c0,5.608-2.679,9.9-7.178,9.9s-7.179-4.29-7.179-9.9V229.931Z" transform="translate(-280.069 -228.715)" fill="#fff"/>
      <path id="Tracé_11" data-name="Tracé 11" d="M452.051,234.378c-.729-1.588-1.665-2.4-3.147-2.4a3.47,3.47,0,0,0-3.277,3.615c0,1.993,1.507,3.04,2.73,3.648l1.4.709c2.782,1.419,4.862,3.412,4.862,7.668,0,4.628-2.756,7.939-6.267,7.939-3.172,0-5.644-3.041-6.059-7.128l2.47-.676c-.026,2.8,1.69,4.832,3.8,4.832s3.614-2.3,3.614-4.967c0-2.737-1.69-3.918-3.38-4.831l-1.353-.743c-2.236-1.25-4.265-2.906-4.265-6.452,0-4.122,2.809-6.588,5.774-6.588,2.184,0,3.978,1.385,5.044,3.851Z" transform="translate(-291.633 -228.331)" fill="#fff"/>
      <path id="Tracé_12" data-name="Tracé 12" d="M469.591,255.4h-2.445V229.931h2.445Z" transform="translate(-301.943 -228.715)" fill="#fff"/>
      <path id="Tracé_13" data-name="Tracé 13" d="M495.113,242.283c0,7.566-4.6,13.277-10.273,13.277s-10.273-5.71-10.273-13.277c0-7.3,4.656-13.276,10.273-13.276S495.113,234.986,495.113,242.283Zm-2.445,0c0-5.608-3.225-10.3-7.828-10.3s-7.828,4.7-7.828,10.3c0,5.81,3.588,10.3,7.828,10.3S492.669,248.093,492.669,242.283Z" transform="translate(-305.022 -228.331)" fill="#fff"/>
      <path id="Tracé_14" data-name="Tracé 14" d="M512.664,227.852l14.719,20.032V229.068h2.445v26.518l-14.72-20.032V254.54h-2.443Z" transform="translate(-320.828 -227.852)" fill="#fff"/>
    </g>
    <line id="Ligne_1" data-name="Ligne 1" x2="208.383" transform="translate(119.053 242.001)" fill="none" stroke="#fff" stroke-width="1.251"/>
    <g id="Groupe_2" data-name="Groupe 2" transform="translate(24.19 185.129)">
      <path id="Tracé_15" data-name="Tracé 15" d="M67.981,278.8c.088-1.045-1.761-2.646-2.85-3.3L33.5,256.961c-4.147-2.848-6.812-7.579-6.379-12.5a5.357,5.357,0,0,0,3.224,4.91L49.6,260.248l8.937,5.061C64.443,268.345,67.983,273.433,67.981,278.8Z" transform="translate(-25.386 -209.744)" fill="#fff"/>
      <path id="Tracé_16" data-name="Tracé 16" d="M32.488,296.23a1.693,1.693,0,1,0,1.693-1.692A1.693,1.693,0,0,0,32.488,296.23Z" transform="translate(-27.633 -230.523)" fill="#009cdd" stroke="#009fe3" stroke-width="1.008"/>
      <path id="Tracé_17" data-name="Tracé 17" d="M35.382,297.43" transform="translate(-28.834 -231.723)" fill="#009cdd" stroke="#009fe3" stroke-width="1.008"/>
      <path id="Tracé_18" data-name="Tracé 18" d="M68.5,187.928l1.076-.675,37.858,21.766,0,2.364,2.361,1.77v45.133l-2.361,1.327.015,2.384L69.674,283.945l-2.077-1.2.014,2.385L31.393,264.078l-3.31-2.99-2.655-4.572-1.239-4.723.235-4.119,1-3.253,2.065-3.393,7.08-5.752-3.245-1.918-3.143-2.469-2.314-3.43-1.18-3.393-.3-5.017.725-3.991,1.188-2.947,1.767-2.559,1.786-2,2.615-1.838L68.5,185.129Z" transform="translate(-24.19 -185.129)" fill="#fff"/>
      <path id="Tracé_19" data-name="Tracé 19" d="M166.7,276.521c-.473.235-1.022,1.146-1.7.848l-1.209-.71-.025-43.188c.562-.293,1.067-1.146,1.773-.641a7.045,7.045,0,0,1,1.147,1.154Z" transform="translate(-82.103 -204.855)" fill="#009cdd"/>
      <path id="Tracé_20" data-name="Tracé 20" d="M136.667,314.121,100.62,334.854l-1.146-.655-.053-1.563,36.374-21.113L137,312.3C137,313.12,137.729,313.978,136.667,314.121Z" transform="translate(-55.403 -237.57)" fill="#009cdd"/>
      <path id="Tracé_21" data-name="Tracé 21" d="M95.968,282.752c-1.609-3.106-4.968-4.093-7.616-5.9.77-.881,1.953-1.5,2.783-2.406l2.072-2.339c-.019-.056-.083,3.627-.042,3.616a33.418,33.418,0,0,0,29.893-16.865c6.325-10.034,5.564-25.671-1.209-35.257-6.744-9.674-17.222-15.264-28.965-14.84-.047,0,.052,2.61.02,2.7-1.352-1.332-4.528-3.778-4.528-3.778,2.455-1.642,6.6-2.9,6.734-6.017L130,221.594l.033,41.329Z" transform="translate(-50.811 -191.987)" fill="#f4d200"/>
      <path id="Tracé_22" data-name="Tracé 22" d="M138.679,259.747c-.016-.046-12.935-.021-13.024.019a53.964,53.964,0,0,0-2.219-12.487l11.681,0a7.093,7.093,0,0,1,1.61,2.883A31.1,31.1,0,0,1,138.679,259.747Z" transform="translate(-65.367 -210.915)" fill="#009cdd"/>
      <path id="Tracé_23" data-name="Tracé 23" d="M135.818,285.946l-.059.073-11.917-.049a50.419,50.419,0,0,0,2.027-12.1l.059-.043,12.98-.02A29.7,29.7,0,0,1,135.818,285.946Z" transform="translate(-65.536 -221.921)" fill="#009cdd"/>
      <path id="Tracé_24" data-name="Tracé 24" d="M108.349,313.157a46.781,46.781,0,0,0,7.917-13.344l11.342-.027A30.322,30.322,0,0,1,108.349,313.157Z" transform="translate(-59.108 -232.7)" fill="#009cdd"/>
      <path id="Tracé_25" data-name="Tracé 25" d="M116.112,233.167a48.382,48.382,0,0,0-7.94-12.925,30.349,30.349,0,0,1,19.076,12.911Z" transform="translate(-59.034 -199.697)" fill="#009cdd"/>
      <path id="Tracé_26" data-name="Tracé 26" d="M111.03,286.029l-10.531-.043.051-12.183,12.744.008,0,.4A41.8,41.8,0,0,1,111.03,286.029Z" transform="translate(-55.851 -221.92)" fill="#009cdd"/>
      <path id="Tracé_27" data-name="Tracé 27" d="M113.225,259.676l-12.743.022.038-12.537,10.28-.031a36.947,36.947,0,0,1,2.412,12.474Z" transform="translate(-55.844 -210.853)" fill="#009cdd"/>
      <path id="Tracé_28" data-name="Tracé 28" d="M100.633,313.492l.057-13.673,9.263-.035A38.68,38.68,0,0,1,100.633,313.492Z" transform="translate(-55.906 -232.699)" fill="#009cdd"/>
      <path id="Tracé_29" data-name="Tracé 29" d="M109.518,232.829c-.133-.012-9.292-.012-9.233.02-.1-.133.008-13.171,0-13.245a31.648,31.648,0,0,1,3.73,3.909A40.969,40.969,0,0,1,109.518,232.829Z" transform="translate(-55.744 -199.433)" fill="#009cdd"/>
      <path id="Tracé_30" data-name="Tracé 30" d="M36.822,266.718c-7.785-3.472-11.474-12.33-9.442-18.635,1.377-4.743,10.841-11.093,10.841-11.093-5.388-2.618-10.355-6.488-11.125-12.715-.655-5.52.723-10.584,5.044-14.047l3.49-2.2s32.055-18.539,32.142-18.538c.4,3.394,0,7.021-3.075,8.689l-7.658,4.481c6.546,4.174,10.173,8.185,10.769,13.585a15.3,15.3,0,0,1-6.075,13.986l-12.1,7.311c2.975,2.281,14.664,6.092,17.315,13.89A15.062,15.062,0,0,1,64.2,266.7c-2.017,2.559-5.914,4.02-8.34,5.722l4.1,2.286,5.613,3.356c1.969,1.545,2.132,4.154,1.914,6.4Z" transform="translate(-25.285 -186.939)" fill="#009cdd"/>
      <path id="Tracé_31" data-name="Tracé 31" d="M87.955,273c-3.169-3.818-7.572-5.607-11.456-8.19v-.147c3.815-2.521,8.189-4.213,11.213-7.947l.293-.752C87.986,256.065,88.02,272.952,87.955,273Z" transform="translate(-45.893 -214.517)" fill="#f4d200"/>
      <path id="Tracé_32" data-name="Tracé 32" d="M80.293,225.189a5.85,5.85,0,0,0-2.593-4.776L58.822,209.422c-.054.006,5.956-3.375,5.959-3.384.041,0,2.783,1.768,5.512,3.433,3.625,2.538,11.354,7.4,10.819,15.185C79.913,231.493,80.357,223.979,80.293,225.189Z" transform="translate(-38.559 -193.804)" fill="#fff" stroke="#009fe3" stroke-linecap="square" stroke-miterlimit="2" stroke-width="1.008"/>
      <path id="Tracé_33" data-name="Tracé 33" d="M64.481,296.637l-14.31,8.38a24.13,24.13,0,0,1-2.324-1.263l3.872-2.806H43.166c-.009.037-6.186-3.688-6.313-3.651l21.521.021c1.656-1.113,3.473-2.242,5.131-3.386l-32.211.036a6.078,6.078,0,0,1-3.859-5.52c.345-1.5,1.693-2.165,3.024-2.928l14.31-8.526c.16-.023,5.465,3.257,5.462,3.22l-5.946.056c-1.656,1.084-3.43,2.079-5.028,3.164l16.533-.008,6.387,3.8-29.941.013c-1.019.087-1.464.572-1.584,1.1-.328,1.165-.2.959.362,1.845l.9.447,35.338,0c1.259,1.19.951,2.329.752,3.45C67.7,295.051,65.428,296.2,64.481,296.637Z" transform="translate(-25.536 -223.244)" fill="#fff" stroke="#009fe3" stroke-width="1.008"/>
      <path id="Tracé_34" data-name="Tracé 34" d="M61.145,235.17l-17.4,10.475c-.011-.008-6.682-3.636-6.682-3.636l8.215.027c-.025-.037,4.994-3.422,5.1-3.387H31.219a7.215,7.215,0,0,1-3.453-3.277l1.166.016,27.125.025c.019-.051,5.481-3.621,5.619-3.614l-32.728-.04a3.109,3.109,0,0,1,1.511-1.558l21.319-12.45,2.4,1.425a42.574,42.574,0,0,0-3.65,2.35l7.772.027c1.735,1.129,4.4,2.287,6.107,3.5-.06,0-20.325-.022-20.325.042.011-.066-5.289,3.274-5.264,3.312l27.551-.033a3.113,3.113,0,0,1,.049,2.566C65.461,233.241,62.95,233.85,61.145,235.17Z" transform="translate(-25.674 -198.665)" fill="#fff" stroke="#009fe3" stroke-linecap="square" stroke-miterlimit="2" stroke-width="1.008"/>
      <path id="Tracé_35" data-name="Tracé 35" d="M135.96,215.277,98.909,194.209l-.053-1.534c0-.071,1.818-.63,1.832-.642l36.373,20.683c.234.532,0,1.062.083,1.563Z" transform="translate(-55.169 -187.993)" fill="#009cdd"/>
      <path id="Tracé_36" data-name="Tracé 36" d="M28.876,251.172c.091.463,2.9,2.048,3.846,2.566,4.082,2.234,18.42,10.48,18.986,10.905s7.888,4.108,10.407,6.2a20.811,20.811,0,0,1,4.428,4.815,12.837,12.837,0,0,1,1.383,3.759s-.421-.841-3.208-2.433c-2.879-1.643-27.73-16.478-28.785-17.05C34.97,259.412,29.768,255.744,28.876,251.172Z" transform="translate(-26.134 -212.53)" fill="#fff"/>
      <path id="Tracé_37" data-name="Tracé 37" d="M38.292,312.909c-5.42-2.176-10.589-7.6-10.563-13.494a6.032,6.032,0,0,0,2.686,3.327l35.458,20.917c1.926,1.438,2.24,3.8,2.023,6.306Z" transform="translate(-25.658 -232.546)" fill="#fff" stroke="#009fe3" stroke-width="1.011"/>
    </g>
    <g id="Groupe_3" data-name="Groupe 3" transform="translate(118.985 244.789)">
      <path id="Tracé_38" data-name="Tracé 38" d="M188.092,287.094l7.427,11.274,1.4-10.687h1.272L196.3,302.1l-7.43-11.254-1.394,10.632H186.2Z" transform="translate(-186.205 -287.094)" fill="#fff"/>
      <path id="Tracé_39" data-name="Tracé 39" d="M207.251,301.128c.331-2.525,2.249-4.557,4.339-4.557s3.474,2.032,3.143,4.557-2.259,4.52-4.334,4.52S206.919,303.654,207.251,301.128Zm1.214-.019c-.231,1.758.613,3.184,2.112,3.184s2.717-1.426,2.947-3.184c.228-1.738-.612-3.184-2.112-3.184S208.692,299.371,208.464,301.11Z" transform="translate(-194.917 -291.026)" fill="#fff"/>
      <path id="Tracé_40" data-name="Tracé 40" d="M223.542,301.772c-.19,1.446-.217,2.69,1.253,2.69s1.768-1.244,1.958-2.69l.63-4.8h1.212l-.651,4.96c-.3,2.287-1.221,3.879-3.326,3.879s-2.608-1.592-2.308-3.879l.651-4.96h1.212Z" transform="translate(-201.151 -291.194)" fill="#fff"/>
      <path id="Tracé_41" data-name="Tracé 41" d="M238.207,298.8c-.106-.458-.414-.878-.854-.878a1.112,1.112,0,0,0-1,.951c-.1.786.676,1.079,1.454,1.5a2.19,2.19,0,0,1,1.327,2.47,3.036,3.036,0,0,1-2.776,2.8,2.251,2.251,0,0,1-2.228-2.177l1.147-.549c.2.805.472,1.372,1.274,1.372a1.4,1.4,0,0,0,1.324-1.317c.252-1.921-3.045-1.263-2.69-3.972a2.635,2.635,0,0,1,2.44-2.434,1.862,1.862,0,0,1,1.684,1.593Z" transform="translate(-206.088 -291.026)" fill="#fff"/>
      <path id="Tracé_42" data-name="Tracé 42" d="M254.089,302.543h-1.212l1.129-8.6h1.211ZM255.9,290.7a1.135,1.135,0,0,1-1,1.043c-.469,0-.8-.458-.726-1.043a1.151,1.151,0,0,1,1-1.043A.84.84,0,0,1,255.9,290.7Z" transform="translate(-213.867 -288.158)" fill="#fff"/>
      <path id="Tracé_43" data-name="Tracé 43" d="M261.217,297.853h.03a2.7,2.7,0,0,1,2.2-1.282c1.969,0,2.2,1.721,1.934,3.734l-.67,5.106H263.5l.637-4.849c.182-1.391.255-2.635-1.154-2.635-1.666,0-2.017,1.866-2.219,3.4l-.536,4.081h-1.211l1.128-8.6h1.212Z" transform="translate(-216.413 -291.026)" fill="#fff"/>
      <path id="Tracé_44" data-name="Tracé 44" d="M274.629,297.853h.031a2.7,2.7,0,0,1,2.2-1.282c1.969,0,2.2,1.721,1.934,3.734l-.669,5.106h-1.212l.637-4.849c.183-1.391.255-2.635-1.154-2.635-1.666,0-2.017,1.866-2.219,3.4l-.535,4.081h-1.212l1.129-8.6h1.212Z" transform="translate(-221.978 -291.026)" fill="#fff"/>
      <path id="Tracé_45" data-name="Tracé 45" d="M285.678,301.128c.331-2.525,2.249-4.557,4.339-4.557s3.474,2.032,3.143,4.557-2.258,4.52-4.334,4.52S285.346,303.654,285.678,301.128Zm1.214-.019c-.23,1.758.613,3.184,2.112,3.184s2.717-1.426,2.947-3.184c.228-1.738-.611-3.184-2.112-3.184S287.119,299.371,286.891,301.11Z" transform="translate(-227.456 -291.026)" fill="#fff"/>
      <path id="Tracé_46" data-name="Tracé 46" d="M302.858,302.76l2.879-5.783H307.1l-4.686,9.169-2.3-9.169H301.5Z" transform="translate(-233.468 -291.194)" fill="#fff"/>
      <path id="Tracé_47" data-name="Tracé 47" d="M311.7,301.128c.331-2.525,2.249-4.557,4.339-4.557s3.474,2.032,3.143,4.557-2.259,4.52-4.334,4.52S311.369,303.654,311.7,301.128Zm1.214-.019c-.231,1.758.612,3.184,2.112,3.184s2.716-1.426,2.947-3.184c.228-1.738-.613-3.184-2.112-3.184S313.142,299.371,312.914,301.11Z" transform="translate(-238.253 -291.026)" fill="#fff"/>
      <path id="Tracé_48" data-name="Tracé 48" d="M328.355,297.853h.031a2.7,2.7,0,0,1,2.2-1.282c1.969,0,2.2,1.721,1.933,3.734l-.669,5.106h-1.213l.637-4.849c.183-1.391.255-2.635-1.153-2.635-1.666,0-2.018,1.866-2.219,3.4l-.536,4.081h-1.212l1.129-8.6h1.211Z" transform="translate(-244.269 -291.026)" fill="#fff"/>
      <path id="Tracé_49" data-name="Tracé 49" d="M343.071,298.8c-.107-.458-.415-.878-.855-.878a1.111,1.111,0,0,0-1,.951c-.1.786.675,1.079,1.453,1.5a2.189,2.189,0,0,1,1.327,2.47,3.035,3.035,0,0,1-2.776,2.8,2.252,2.252,0,0,1-2.229-2.177l1.147-.549c.2.805.472,1.372,1.274,1.372a1.406,1.406,0,0,0,1.325-1.317c.251-1.921-3.046-1.263-2.69-3.972a2.634,2.634,0,0,1,2.44-2.434,1.862,1.862,0,0,1,1.683,1.593Z" transform="translate(-249.596 -291.026)" fill="#fff"/>
      <path id="Tracé_50" data-name="Tracé 50" d="M351.647,308.714l-2.326,4.685-.764-.4,2.031-4.758Z" transform="translate(-253.565 -295.867)" fill="#fff"/>
      <path id="Tracé_51" data-name="Tracé 51" d="M367.8,302.76l2.88-5.783h1.362l-4.686,9.169-2.3-9.169h1.379Z" transform="translate(-260.41 -291.194)" fill="#fff"/>
      <path id="Tracé_52" data-name="Tracé 52" d="M376.636,301.128c.331-2.525,2.249-4.557,4.339-4.557s3.475,2.032,3.144,4.557-2.259,4.52-4.334,4.52S376.3,303.654,376.636,301.128Zm1.215-.019c-.231,1.758.611,3.184,2.112,3.184s2.717-1.426,2.948-3.184c.227-1.738-.613-3.184-2.112-3.184S378.079,299.371,377.85,301.11Z" transform="translate(-265.195 -291.026)" fill="#fff"/>
      <path id="Tracé_53" data-name="Tracé 53" d="M392.928,301.772c-.19,1.446-.217,2.69,1.253,2.69s1.769-1.244,1.959-2.69l.628-4.8h1.211l-.65,4.96c-.3,2.287-1.22,3.879-3.327,3.879s-2.608-1.592-2.307-3.879l.65-4.96h1.212Z" transform="translate(-271.43 -291.194)" fill="#fff"/>
      <path id="Tracé_54" data-name="Tracé 54" d="M407.594,298.8c-.107-.458-.415-.878-.854-.878a1.11,1.11,0,0,0-1,.951c-.1.786.677,1.079,1.454,1.5a2.188,2.188,0,0,1,1.326,2.47,3.035,3.035,0,0,1-2.775,2.8,2.251,2.251,0,0,1-2.229-2.177l1.147-.549c.2.805.472,1.372,1.274,1.372a1.4,1.4,0,0,0,1.323-1.317c.253-1.921-3.044-1.263-2.69-3.972a2.637,2.637,0,0,1,2.44-2.434,1.864,1.864,0,0,1,1.686,1.593Z" transform="translate(-276.367 -291.026)" fill="#fff"/>
      <path id="Tracé_55" data-name="Tracé 55" d="M423.5,298.036h.031a3.336,3.336,0,0,1,2.644-1.465c2.091,0,3.123,2.178,2.811,4.557-.322,2.453-1.881,4.52-4.017,4.52a2.437,2.437,0,0,1-2.249-1.446h-.03l-.793,6.039h-1.212l1.764-13.433h1.211Zm-.452,2.983c-.221,1.683.388,3.275,1.9,3.275,1.56,0,2.576-1.518,2.8-3.257.225-1.72-.486-3.11-1.985-3.11C424.365,297.926,423.263,299.408,423.05,301.019Z" transform="translate(-283.492 -291.026)" fill="#fff"/>
      <path id="Tracé_56" data-name="Tracé 56" d="M438.671,297.742h.03c.513-.677.94-1.171,1.729-1.171a1.661,1.661,0,0,1,1.037.4l-.751,1.335c-.216-.2-.359-.384-.676-.384-1.332,0-1.665,2.068-1.811,3.184l-.565,4.3h-1.211l1.129-8.6h1.211Z" transform="translate(-290.033 -291.026)" fill="#fff"/>
      <path id="Tracé_57" data-name="Tracé 57" d="M444.81,301.128c.331-2.525,2.248-4.557,4.339-4.557s3.475,2.032,3.144,4.557-2.261,4.52-4.334,4.52S444.478,303.654,444.81,301.128Zm1.215-.019c-.231,1.758.611,3.184,2.112,3.184s2.717-1.426,2.947-3.184c.228-1.738-.613-3.184-2.112-3.184S446.252,299.371,446.024,301.11Z" transform="translate(-293.48 -291.026)" fill="#fff"/>
      <path id="Tracé_58" data-name="Tracé 58" d="M465.24,304.99a7,7,0,0,1-1.211,3.7,3.761,3.761,0,0,1-2.957,1.519c-1.984,0-3.254-1.519-2.979-3.953H459.3c-.194,1.592.629,2.6,1.93,2.6,1.879,0,2.506-1.665,2.76-3.6l.135-1.025H464.1a3.483,3.483,0,0,1-2.656,1.427c-2.075,0-3.117-2.1-2.8-4.5.316-2.415,1.932-4.575,4.038-4.575a2.414,2.414,0,0,1,2.23,1.465h.03l.161-1.227h1.212Zm-5.34-3.971c-.221,1.683.388,3.275,1.9,3.275,1.561,0,2.577-1.518,2.806-3.257.225-1.72-.486-3.11-1.985-3.11C461.214,297.926,460.111,299.408,459.9,301.019Z" transform="translate(-298.996 -291.026)" fill="#fff"/>
      <path id="Tracé_59" data-name="Tracé 59" d="M476.137,297.742h.031c.512-.677.94-1.171,1.728-1.171a1.658,1.658,0,0,1,1.037.4l-.751,1.335c-.216-.2-.358-.384-.675-.384-1.334,0-1.666,2.068-1.813,3.184l-.563,4.3H473.92l1.128-8.6h1.211Z" transform="translate(-305.578 -291.026)" fill="#fff"/>
      <path id="Tracé_60" data-name="Tracé 60" d="M483.466,301.42c-.192,1.593.578,2.873,1.957,2.873a2.945,2.945,0,0,0,2.4-1.775l.936.714a4.217,4.217,0,0,1-3.6,2.416c-2.121,0-3.227-1.958-2.9-4.428.333-2.544,1.838-4.649,4.064-4.649,2.287,0,3.2,2.288,2.741,4.849Zm4.481-1.245a2.016,2.016,0,0,0-1.8-2.25,2.882,2.882,0,0,0-2.46,2.25Z" transform="translate(-309.012 -291.026)" fill="#fff"/>
      <path id="Tracé_61" data-name="Tracé 61" d="M499.124,298.8c-.108-.458-.416-.878-.854-.878a1.11,1.11,0,0,0-1,.951c-.1.786.675,1.079,1.453,1.5a2.189,2.189,0,0,1,1.327,2.47,3.036,3.036,0,0,1-2.776,2.8,2.252,2.252,0,0,1-2.229-2.177l1.147-.549c.2.805.471,1.372,1.273,1.372a1.4,1.4,0,0,0,1.324-1.317c.253-1.921-3.044-1.263-2.69-3.972a2.636,2.636,0,0,1,2.44-2.434,1.864,1.864,0,0,1,1.685,1.593Z" transform="translate(-314.342 -291.026)" fill="#fff"/>
      <path id="Tracé_62" data-name="Tracé 62" d="M509.2,298.8c-.108-.458-.416-.878-.855-.878a1.112,1.112,0,0,0-1,.951c-.1.786.676,1.079,1.453,1.5a2.188,2.188,0,0,1,1.327,2.47,3.035,3.035,0,0,1-2.775,2.8,2.252,2.252,0,0,1-2.23-2.177l1.147-.549c.2.805.472,1.372,1.274,1.372a1.4,1.4,0,0,0,1.325-1.317c.251-1.921-3.046-1.263-2.69-3.972a2.636,2.636,0,0,1,2.44-2.434,1.863,1.863,0,0,1,1.685,1.593Z" transform="translate(-318.52 -291.026)" fill="#fff"/>
      <path id="Tracé_63" data-name="Tracé 63" d="M516.79,301.42c-.193,1.593.579,2.873,1.955,2.873a2.943,2.943,0,0,0,2.4-1.775l.937.714a4.218,4.218,0,0,1-3.6,2.416c-2.121,0-3.227-1.958-2.9-4.428.333-2.544,1.837-4.649,4.063-4.649,2.288,0,3.2,2.288,2.741,4.849Zm4.481-1.245c0-1.243-.735-2.25-1.8-2.25a2.882,2.882,0,0,0-2.461,2.25Z" transform="translate(-322.838 -291.026)" fill="#fff"/>
      <path id="Tracé_64" data-name="Tracé 64" d="M534.771,304.225l-.178,1.354h-7.361l6.086-7.247h-4.181l.178-1.355h6.617l-6.069,7.248Z" transform="translate(-327.697 -291.194)" fill="#fff"/>
      <path id="Tracé_65" data-name="Tracé 65" d="M544.559,309.589a1.135,1.135,0,0,1-.983,1.043c-.471,0-.786-.476-.712-1.043a1.108,1.108,0,0,1,.981-1.007A.809.809,0,0,1,544.559,309.589Z" transform="translate(-334.178 -296.009)" fill="#fff"/>
    </g>
  </g>
</svg>
