<svg xmlns="http://www.w3.org/2000/svg" width="119.081" height="130.682" viewBox="0 0 119.081 130.682">
  <g id="picto-loupe" transform="translate(401.538 -286.509)">
    <g id="Groupe_39" data-name="Groupe 39">
      <g id="Groupe_37" data-name="Groupe 37">
        <g id="Groupe_36" data-name="Groupe 36">
          <path id="Tracé_79" data-name="Tracé 79" d="M-383.282,347.847a3.657,3.657,0,0,1-3.631-3.265,39.674,39.674,0,0,1-.228-4.211,39.327,39.327,0,0,1,14.556-30.6,3.654,3.654,0,0,1,5.142.525,3.654,3.654,0,0,1-.524,5.142,32.051,32.051,0,0,0-11.864,24.932,32.143,32.143,0,0,0,.188,3.431,3.657,3.657,0,0,1-3.245,4.025A3.765,3.765,0,0,1-383.282,347.847Z" fill="#cfdeeb"/>
        </g>
      </g>
      <g id="Groupe_38" data-name="Groupe 38">
        <path id="Tracé_80" data-name="Tracé 80" d="M-332.6,347.613H-356a14.663,14.663,0,0,0-14.621,14.621v9.9a39.18,39.18,0,0,0,7.311,4.206V362.234a7.319,7.319,0,0,1,7.31-7.311h23.4a7.319,7.319,0,0,1,7.31,7.311v10.325a39.557,39.557,0,0,0,7.311-6.609v-3.716A14.663,14.663,0,0,0-332.6,347.613Z" fill="#cfdeeb"/>
        <path id="Tracé_81" data-name="Tracé 81" d="M-285.739,392.721l-17.7-21.673a53.548,53.548,0,0,0,9.626-30.677,53.924,53.924,0,0,0-53.863-53.862,53.923,53.923,0,0,0-53.863,53.862,53.924,53.924,0,0,0,53.863,53.864,53.579,53.579,0,0,0,20.743-4.159l17.78,21.772a14.577,14.577,0,0,0,12.655,5.28,14.478,14.478,0,0,0,7.862-3.214l.836-.681a14.477,14.477,0,0,0,5.267-9.828A14.463,14.463,0,0,0-285.739,392.721Zm-108.489-52.35a46.605,46.605,0,0,1,46.553-46.551,46.6,46.6,0,0,1,46.552,46.551,46.606,46.606,0,0,1-46.552,46.554A46.606,46.606,0,0,1-394.228,340.371Zm104.177,62.273a6.971,6.971,0,0,1-2.533,4.735l-.837.683a6.941,6.941,0,0,1-3.769,1.54,7.021,7.021,0,0,1-6.1-2.536l-16.735-20.489a54.192,54.192,0,0,0,11.74-9.519l16.7,20.446A6.979,6.979,0,0,1-290.051,402.644Z" fill="#cfdeeb"/>
      </g>
    </g>
    <path id="Tracé_82" data-name="Tracé 82" d="M-344.3,307.069a17.207,17.207,0,0,0-17.207,17.208A17.207,17.207,0,0,0-344.3,341.485,17.206,17.206,0,0,0-327.1,324.277,17.206,17.206,0,0,0-344.3,307.069Zm0,27.106a9.909,9.909,0,0,1-9.9-9.9,9.91,9.91,0,0,1,9.9-9.9,9.91,9.91,0,0,1,9.9,9.9A9.91,9.91,0,0,1-344.3,334.175Z" fill="#cfdeeb"/>
  </g>
</svg>
