<svg xmlns="http://www.w3.org/2000/svg" width="148.563" height="121.27" viewBox="0 0 148.563 121.27">
  <g id="picto-cible" transform="translate(413.932 -84.566)">
    <path id="Tracé_73" data-name="Tracé 73" d="M-399.376,189.248l-6.266,11.139a3.657,3.657,0,0,0,1.394,4.979,3.645,3.645,0,0,0,1.789.47,3.654,3.654,0,0,0,3.189-1.865l6.1-10.838a63.613,63.613,0,0,1-5.784-4.481A3.656,3.656,0,0,0-399.376,189.248Z" fill="#cfdeeb"/>
    <path id="Tracé_74" data-name="Tracé 74" d="M-316.067,189.248a3.62,3.62,0,0,0-.279-.4,63,63,0,0,1-5.818,4.471l5.991,10.649a3.655,3.655,0,0,0,3.19,1.865,3.642,3.642,0,0,0,1.788-.47,3.657,3.657,0,0,0,1.4-4.979Z" fill="#cfdeeb"/>
    <path id="Tracé_75" data-name="Tracé 75" d="M-357.536,190.044a49.141,49.141,0,0,1-49.085-49.084,49.141,49.141,0,0,1,49.085-49.084,49.16,49.16,0,0,1,48.142,39.532h7.429a56.4,56.4,0,0,0-55.571-46.842,56.394,56.394,0,0,0-56.4,56.394,56.394,56.394,0,0,0,56.4,56.394,56.4,56.4,0,0,0,55.626-47.148h-7.429A49.156,49.156,0,0,1-357.536,190.044Z" fill="#cfdeeb"/>
    <path id="Tracé_76" data-name="Tracé 76" d="M-331.039,131.408h7.675a35.5,35.5,0,0,0-34.172-25.958,35.509,35.509,0,0,0-35.509,35.51,35.51,35.51,0,0,0,35.509,35.51,35.495,35.495,0,0,0,34.251-26.265h-7.641a28.225,28.225,0,0,1-26.61,18.954,28.229,28.229,0,0,1-28.2-28.2,28.229,28.229,0,0,1,28.2-28.2A28.22,28.22,0,0,1-331.039,131.408Z" fill="#cfdeeb"/>
    <path id="Tracé_77" data-name="Tracé 77" d="M-266.236,151.466l-8.621-10.17,8.629-10.251a3.656,3.656,0,0,0-.443-5.151,3.654,3.654,0,0,0-5.15.443l-8.853,10.517a3.419,3.419,0,0,0-.2.3h-8.613l5.156-6.1a3.654,3.654,0,0,0-.432-5.151,3.653,3.653,0,0,0-5.15.433l-9.065,10.726c-.026.03-.041.063-.064.094H-353.97a3.656,3.656,0,0,0-3.656,3.655,3.656,3.656,0,0,0,3.656,3.655h54.284a3.63,3.63,0,0,0,.5.8l9.273,10.935a3.646,3.646,0,0,0,2.79,1.291,3.638,3.638,0,0,0,2.362-.867,3.656,3.656,0,0,0,.425-5.152l-5.938-7h8.7a3.6,3.6,0,0,0,.5.795l9.269,10.935a3.644,3.644,0,0,0,2.79,1.292,3.632,3.632,0,0,0,2.361-.867A3.655,3.655,0,0,0-266.236,151.466Z" fill="#cfdeeb"/>
    <path id="Tracé_78" data-name="Tracé 78" d="M-353.966,131.408h8.391a15.277,15.277,0,0,0-11.961-5.765,15.317,15.317,0,0,0-15.319,15.317,15.318,15.318,0,0,0,15.319,15.317,15.272,15.272,0,0,0,12.189-6.072h-8.623a9.369,9.369,0,0,1-6.646-2.752,9.384,9.384,0,0,1-2.57-4.822,9.458,9.458,0,0,1-.184-1.824,9.268,9.268,0,0,1,.139-1.371A9.374,9.374,0,0,1-353.966,131.408Z" fill="#cfdeeb"/>
  </g>
</svg>
