<svg xmlns="http://www.w3.org/2000/svg" width="131.259" height="108.722" viewBox="0 0 131.259 108.722">
  <g id="picto-graphique" transform="translate(400.569 112.572)">
    <path id="Tracé_71" data-name="Tracé 71" d="M-371.647-36.247a3.636,3.636,0,0,1-1.947-.564,3.654,3.654,0,0,1-1.142-5.041l16.149-25.607a3.653,3.653,0,0,1,3.007-1.7A3.722,3.722,0,0,1-352.5-67.6l9.885,14.166,13.006-12.532a3.653,3.653,0,0,1,5.044-.026l8.485,8,14.45-36.124a3.659,3.659,0,0,1,4.751-2.037A3.656,3.656,0,0,1-294.84-91.4l-16.445,41.11a3.659,3.659,0,0,1-2.607,2.212,3.659,3.659,0,0,1-3.3-.911l-9.857-9.3L-340.624-45.2a3.656,3.656,0,0,1-2.892,1.006,3.656,3.656,0,0,1-2.642-1.546L-355.341-58.9l-13.212,20.949A3.654,3.654,0,0,1-371.647-36.247Z" fill="#cfdeeb"/>
    <rect id="Rectangle_11" data-name="Rectangle 11" width="131.238" height="7.311" transform="translate(-400.559 -11.161)" fill="#cfdeeb"/>
    <path id="Tracé_72" data-name="Tracé 72" d="M-283.931-112.572H-385.948a14.663,14.663,0,0,0-14.621,14.621v63.424a14.664,14.664,0,0,0,14.621,14.622h102.017A14.665,14.665,0,0,0-269.31-34.527V-97.951A14.664,14.664,0,0,0-283.931-112.572Zm7.311,78.045a7.32,7.32,0,0,1-7.311,7.311H-385.948a7.319,7.319,0,0,1-7.31-7.311V-97.951a7.319,7.319,0,0,1,7.31-7.311h102.017a7.32,7.32,0,0,1,7.311,7.311Z" fill="#cfdeeb"/>
  </g>
</svg>
