<svg xmlns="http://www.w3.org/2000/svg" viewBox="0 0 30 30"><defs><style>.cls-1{fill:none;stroke:#fff;stroke-miterlimit:2.73;stroke-width:1.02px;}.cls-2{fill:#fff;}</style></defs><g id="Calque_2" data-name="Calque 2"><g id="Calque_1-2" data-name="Calque 1"><g id="nav-arrow"><g id="Ellipse_1" data-name="Ellipse 1"><circle class="cls-1" cx="15" cy="15" r="14.49"/></g></g><path class="cls-2" d="M15.38,18.53v1A.41.41,0,0,1,15,20a.42.42,0,0,1-.41-.41v-1a1.54,1.54,0,1,1,.82,0ZM15,16.34a.72.72,0,1,0,.72.71A.71.71,0,0,0,15,16.34ZM9.14,13h.65V10.73a5.05,5.05,0,0,1,10.1,0,.42.42,0,0,1-.83,0,4.23,4.23,0,1,0-8.45,0V13H20.86a.41.41,0,0,1,.41.41v7A2.61,2.61,0,0,1,18.66,23H11.34a2.61,2.61,0,0,1-2.61-2.61v-7A.41.41,0,0,1,9.14,13Zm.41,7.38a1.79,1.79,0,0,0,1.79,1.79h7.32a1.79,1.79,0,0,0,1.79-1.79V13.79H9.55Z"/></g></g></svg>